<svg xmlns="http://www.w3.org/2000/svg" width="38" height="37" viewBox="0 0 38 37"><g><g opacity=".5"><path fill="#f5c506" d="M.037 9.472l8.957-.335-.06-8.831 3.825 3.603.06 8.831-8.958.335zm5.805 5.468l8.957-.335-.06-8.83 3.825 3.603.06 8.83-8.958.336zm18.986 17.888l-.06-8.83 8.958-.336 3.825 3.603-8.958.336.06 8.83zm-5.804-5.468l-.06-8.831 8.957-.336 3.825 3.604-8.958.335.06 8.83zm8.8-27.47l.34 8.825 8.965-.06-3.658 3.768-8.964.06-.34-8.825zm-5.55 5.718l.34 8.825 8.964-.059-3.658 3.768-8.964.06-.34-8.826zM4.116 24.314l8.964-.06.34 8.825-3.657 3.768-.34-8.825-8.964.06zm5.551-5.719l8.964-.06.34 8.826-3.657 3.768-.34-8.825-8.964.06z"/></g></g></svg>