<svg xmlns="http://www.w3.org/2000/svg" width="40" height="39" viewBox="0 0 40 39"><g><g><path fill="#f5c506" d="M-.004 25.841L6.235 19.5l-6.239-6.342h5.292l6.24 6.342-6.24 6.341zm8.032 0l6.239-6.341-6.24-6.342h5.293l6.24 6.342-6.24 6.341zm26.271 0L28.06 19.5l6.24-6.342h5.291L33.353 19.5l6.238 6.341zm-8.031 0l-6.24-6.341 6.24-6.342h5.292L25.32 19.5l6.239 6.341zM13.357-.004l6.437 6.146L26.23-.004V5.21l-6.437 6.146-6.437-6.146zm0 7.913l6.437 6.146 6.437-6.146v5.213l-6.437 6.147-6.437-6.147zm0 25.881l6.437-6.147 6.437 6.147v5.214l-6.437-6.147-6.437 6.147zm0-7.912l6.437-6.147 6.437 6.147v5.213l-6.437-6.146-6.437 6.146z"/></g></g></svg>